<?xml version="1.0" encoding="utf-8"?>
<!-- Generator: Adobe Illustrator 27.0.0, SVG Export Plug-In . SVG Version: 6.00 Build 0)  -->
<svg version="1.1" id="Camada_1" xmlns="http://www.w3.org/2000/svg" xmlns:xlink="http://www.w3.org/1999/xlink" x="0px" y="0px"
	 viewBox="0 0 174.24 188.19" style="enable-background:new 0 0 174.24 188.19;" xml:space="preserve">
<style type="text/css">
	.st0{fill:#020203;}
	.st1{fill:#65C6E4;}
	.st2{fill:#5EBDDA;}
	.st3{enable-background:new    ;}
</style>
<g id="_x33_xzom7_00000072266566616504007380000015704639085883827877_">
	<g>
		<path class="st0" d="M86.45,95.56C67.42,96.55,44.83,81,44.54,53.91c-0.26-22.94,18.7-41.52,41.53-41.63
			c23.15-0.11,42.3,18.52,42.14,41.48C128.02,80.29,105.82,96.45,86.45,95.56z M77.26,37.43c-1.29-1.71-3.76-1.92-4.85-3.85
			c-1.08-1.85-0.63-4.23-2.17-6.24c-1.55,0.54-2.88,1.27-3.57,2.64c0.2,2.16,2.25,3.11,2.5,4.94c-0.22,1.56-1.75,2.51-1.72,4.21
			c0.9,1.61,1.46,3.76,4.19,3.07c1.15-1.27,0.86-3.27,2.33-4.32c1.03-0.77,2.28-0.17,3.37-0.54c2.12,2.51,5.55,4.09,5.63,8.31
			c-1.28,2.49-5.21,1.69-6.45,4.53c-1.17,2.69-1.91,5.68-5.06,7.26c-1.47,0-3.13,0-4.67,0c-1.61,0.7-1.98,2.96-4.49,2.7
			c-2.46-1.28-3.68-4.8-7.22-6.21C55.5,66.59,61,75.67,71.59,81.47c10.43,5.7,20.83,5.15,31.32-0.96
			c-2.81-6.36-0.25-13.44-3.5-19.25c-1.83-1.28-3.53-0.4-5.15-0.56c-3.01-0.3-4.95-1.82-5.68-4.72c-1.76-7.07,3.4-14.88,10.59-16.25
			c2.68,0.41,2.11,3.78,3.97,4.37c1.85,0.79,3.34,0.38,4.8,0.16c1.53-0.23,2.97-0.33,4.17,0.83c1.77,9.3,1.77,9.3,5.27,10.07
			c2.06-20.27-19.78-37.87-39.36-31.29c9.73,5.96,9.79,8.43,6.12,13.2C81.88,38.49,79.53,37.01,77.26,37.43z"/>
		<path class="st1" d="M77.26,37.43c2.27-0.42,4.62,1.06,6.89-0.37c3.67-4.77,3.61-7.23-6.12-13.2
			c19.57-6.58,41.41,11.03,39.36,31.29c-3.5-0.77-3.5-0.77-5.27-10.07c-1.2-1.16-2.65-1.06-4.17-0.83c-1.46,0.22-2.95,0.63-4.8-0.16
			c-1.86-0.59-1.29-3.97-3.97-4.37c-7.19,1.37-12.35,9.18-10.59,16.25c0.72,2.91,2.67,4.42,5.68,4.72c1.62,0.16,3.32-0.72,5.15,0.56
			c3.26,5.81,0.7,12.89,3.5,19.25c-10.48,6.11-20.89,6.67-31.32,0.96c-10.59-5.8-16.09-14.88-16.51-27.54
			c3.54,1.41,4.76,4.93,7.22,6.21c2.51,0.26,2.88-2,4.49-2.7c1.55,0,3.21,0,4.67,0c3.14-1.58,3.89-4.57,5.06-7.26
			c1.24-2.84,5.17-2.04,6.45-4.53c-0.08-4.22-3.51-5.8-5.63-8.31L77.26,37.43z"/>
		<path class="st2" d="M77.33,37.34c-1.09,0.37-2.34-0.24-3.37,0.54c-1.47,1.05-1.18,3.05-2.33,4.32c-2.73,0.7-3.29-1.45-4.19-3.07
			c-0.03-1.71,1.5-2.65,1.72-4.21c-0.25-1.83-2.29-2.78-2.5-4.94c0.69-1.37,2.02-2.1,3.57-2.64c1.53,2,1.08,4.38,2.17,6.24
			c1.09,1.94,3.56,2.14,4.85,3.85L77.33,37.34z"/>
	</g>
</g>
<g class="st3">
	<path d="M33.2,111.34h-4.86v-3.61h14.29v3.61h-4.85v26.6H33.2V111.34z"/>
	<path d="M45.44,113.59h3.27l0.39,2.48c0.5-0.92,1.06-1.61,1.71-2.07s1.3-0.69,1.97-0.69c1.28,0,2.23,0.39,2.85,1.18
		c0.61,0.79,0.92,1.98,0.92,3.56c0,0.2-0.01,0.44-0.04,0.72s-0.07,0.57-0.12,0.87c-0.05,0.3-0.12,0.6-0.19,0.9
		c-0.08,0.3-0.16,0.58-0.24,0.82h-3.11v-2.26c0-0.5-0.03-0.9-0.1-1.22s-0.15-0.57-0.26-0.77c-0.11-0.2-0.23-0.33-0.37-0.41
		c-0.14-0.08-0.29-0.12-0.46-0.12c-0.35,0-0.68,0.12-0.98,0.34c-0.3,0.23-0.55,0.55-0.75,0.96v20.06h-4.47V113.59z"/>
	<path d="M62.74,138.21c-0.75,0-1.42-0.15-2.01-0.45c-0.58-0.3-1.08-0.71-1.48-1.23c-0.4-0.52-0.7-1.13-0.91-1.85
		c-0.21-0.71-0.31-1.49-0.31-2.33c0-1,0.12-1.89,0.37-2.67c0.25-0.78,0.61-1.48,1.09-2.1s1.07-1.19,1.78-1.71
		c0.71-0.51,1.53-1,2.46-1.46c0.45-0.22,0.95-0.45,1.51-0.68c0.56-0.23,1.06-0.43,1.5-0.59v-3.22c0-0.47-0.02-0.91-0.05-1.32
		c-0.04-0.41-0.12-0.76-0.26-1.06c-0.14-0.3-0.34-0.54-0.61-0.71c-0.27-0.17-0.64-0.26-1.11-0.26c-0.32,0-0.63,0.06-0.93,0.18
		c-0.3,0.12-0.57,0.32-0.8,0.6s-0.41,0.66-0.55,1.13c-0.13,0.47-0.2,1.06-0.2,1.75v1.06h-3.41c-0.11-0.46-0.19-0.88-0.24-1.26
		c-0.05-0.38-0.08-0.76-0.08-1.14c0-0.91,0.16-1.71,0.47-2.41c0.31-0.7,0.75-1.28,1.31-1.75c0.56-0.47,1.23-0.83,2.01-1.07
		c0.78-0.24,1.63-0.36,2.56-0.36c1.21,0,2.22,0.13,3.02,0.4s1.44,0.66,1.92,1.19c0.48,0.53,0.81,1.2,1.01,2
		c0.19,0.8,0.29,1.74,0.29,2.81v18.24h-3.33l-0.32-2.09c-0.48,0.7-1.13,1.26-1.94,1.7C64.7,137.99,63.77,138.21,62.74,138.21z
		 M64.72,134.76c0.38,0,0.75-0.1,1.11-0.29c0.36-0.19,0.66-0.43,0.91-0.72v-7.62c-0.24,0.09-0.5,0.21-0.8,0.34
		c-0.29,0.13-0.61,0.3-0.96,0.51c-0.32,0.2-0.63,0.44-0.94,0.72c-0.31,0.28-0.58,0.62-0.82,1.01c-0.24,0.39-0.44,0.83-0.58,1.32
		s-0.22,1.04-0.22,1.64c0,0.93,0.18,1.68,0.55,2.25C63.33,134.48,63.92,134.76,64.72,134.76z"/>
	<path d="M73.7,113.59h4.46l2.35,12.95l0.58,5.18h0.14l0.67-5.18l2.33-12.95h4.32l-5.55,24.36h-3.82L73.7,113.59z"/>
	<path d="M97.05,138.21c-1.05,0-1.98-0.2-2.79-0.58s-1.49-1-2.04-1.82c-0.55-0.83-0.97-1.88-1.26-3.18
		c-0.28-1.29-0.42-2.84-0.42-4.66v-4.6c0-1.54,0.11-2.87,0.34-3.97c0.23-1.1,0.53-2.03,0.9-2.78c0.37-0.75,0.8-1.34,1.29-1.78
		c0.49-0.44,0.99-0.77,1.51-1s1.04-0.38,1.55-0.44c0.51-0.06,0.99-0.1,1.42-0.1c0.8,0,1.57,0.12,2.32,0.36
		c0.74,0.24,1.4,0.65,1.96,1.24c0.57,0.58,1.02,1.36,1.35,2.34c0.34,0.98,0.5,2.2,0.5,3.66c0,0.5-0.02,1-0.04,1.5
		s-0.07,1.01-0.11,1.49c-0.05,0.49-0.11,0.96-0.19,1.42c-0.08,0.46-0.16,0.88-0.24,1.27h-8.08v2.48c0,1.06,0.04,1.95,0.12,2.68
		c0.08,0.73,0.22,1.31,0.42,1.75c0.2,0.44,0.46,0.76,0.8,0.96c0.34,0.19,0.76,0.29,1.26,0.29c0.27,0,0.54-0.06,0.8-0.17
		c0.26-0.11,0.49-0.3,0.68-0.56c0.19-0.26,0.35-0.6,0.47-1.03c0.12-0.43,0.18-0.96,0.18-1.6v-0.76h3.73v0.94
		c0,2.31-0.55,3.99-1.65,5.05C100.73,137.68,99.14,138.21,97.05,138.21z M99.53,123.6c0.01-0.13,0.02-0.3,0.04-0.52
		c0.01-0.22,0.02-0.44,0.03-0.68c0.01-0.24,0.01-0.47,0.01-0.7c0-0.23,0-0.43,0-0.59c0-1.6-0.19-2.76-0.57-3.47
		c-0.38-0.71-0.94-1.06-1.68-1.06c-0.39,0-0.73,0.09-1.03,0.27s-0.54,0.49-0.72,0.92c-0.19,0.43-0.33,1-0.42,1.71
		c-0.09,0.71-0.14,1.59-0.14,2.63v1.49H99.53z"/>
	<path d="M107.56,105.77h4.47v32.17h-4.47V105.77z"/>
	<path d="M123.12,130.69c0-1,0.17-1.95,0.5-2.83c0.33-0.88,0.73-1.7,1.2-2.45s0.97-1.43,1.5-2.03c0.52-0.61,0.98-1.13,1.37-1.58
		l0.48-0.51l-0.6-1.08c-0.31-0.55-0.6-1.14-0.88-1.75s-0.53-1.24-0.75-1.88s-0.39-1.3-0.52-1.96c-0.13-0.67-0.19-1.33-0.19-1.99
		c0-1.03,0.18-1.95,0.53-2.78s0.83-1.53,1.43-2.11c0.6-0.58,1.31-1.02,2.12-1.33s1.68-0.47,2.6-0.47c1.2,0,2.2,0.18,2.98,0.55
		c0.78,0.37,1.41,0.82,1.87,1.37c0.46,0.55,0.78,1.14,0.96,1.77c0.18,0.63,0.27,1.22,0.27,1.76c0,1.1-0.18,2.11-0.54,3.05
		c-0.36,0.94-0.79,1.79-1.29,2.56c-0.5,0.77-1.02,1.46-1.57,2.07c-0.54,0.61-1,1.12-1.36,1.55l-0.39,0.44l4.56,8.3
		c0.2-0.65,0.36-1.33,0.47-2.03c0.11-0.71,0.17-1.43,0.17-2.18c0-0.39-0.01-0.75-0.02-1.09s-0.03-0.66-0.05-0.98h3.7
		c0.06,0.31,0.1,0.64,0.13,1c0.03,0.36,0.04,0.72,0.04,1.07c0,1.4-0.22,2.77-0.66,4.1c-0.44,1.33-1.04,2.56-1.79,3.7l2.76,4.99
		h-4.74l-0.99-1.77c-0.85,0.65-1.75,1.16-2.69,1.52s-1.9,0.55-2.88,0.55c-1.13,0-2.17-0.17-3.11-0.5c-0.94-0.34-1.76-0.82-2.44-1.46
		s-1.21-1.42-1.59-2.36C123.31,132.96,123.12,131.89,123.12,130.69z M127.67,130.07c0,0.57,0.08,1.13,0.24,1.69
		c0.16,0.56,0.41,1.06,0.74,1.5c0.34,0.44,0.77,0.8,1.29,1.08c0.53,0.28,1.15,0.42,1.87,0.42c0.59,0,1.14-0.12,1.65-0.35
		c0.51-0.24,0.99-0.57,1.42-0.99l-5.02-9.06c-0.71,0.88-1.25,1.81-1.63,2.79C127.85,128.12,127.67,129.09,127.67,130.07z
		 M131.49,117.73c0.24-0.27,0.5-0.59,0.8-0.96c0.3-0.37,0.59-0.78,0.86-1.24c0.27-0.46,0.5-0.97,0.69-1.54s0.28-1.18,0.28-1.84
		c0-0.45-0.06-0.84-0.19-1.17c-0.12-0.33-0.29-0.6-0.5-0.81c-0.21-0.21-0.44-0.37-0.71-0.48s-0.55-0.16-0.84-0.16
		c-0.27,0-0.55,0.05-0.85,0.15s-0.56,0.27-0.8,0.5c-0.24,0.24-0.44,0.55-0.6,0.95c-0.16,0.4-0.24,0.89-0.24,1.48
		c0,0.4,0.03,0.79,0.1,1.18c0.06,0.38,0.17,0.79,0.31,1.22c0.14,0.43,0.33,0.89,0.56,1.38c0.23,0.49,0.5,1.04,0.82,1.65
		L131.49,117.73z"/>
</g>
<g class="st3">
	<path d="M18.47,141.73h5.98l2.9,11.69c0.31,1.3,0.55,2.53,0.73,3.71c0.18,1.17,0.35,2.28,0.51,3.32h0.14
		c0.17-1.04,0.34-2.14,0.51-3.32c0.18-1.17,0.42-2.41,0.73-3.71l2.99-11.69h5.85v30.21h-4.28v-9.99c0-1.53,0.01-3.01,0.04-4.42
		c0.03-1.42,0.07-2.71,0.11-3.9c0.05-1.18,0.1-2.23,0.16-3.14c0.06-0.91,0.11-1.63,0.16-2.16h-0.34l-4.56,19.72h-2.9l-4.6-19.72
		h-0.34c0.05,0.53,0.1,1.25,0.16,2.16c0.06,0.91,0.11,1.95,0.16,3.14c0.05,1.19,0.08,2.49,0.12,3.9c0.03,1.42,0.04,2.89,0.04,4.42
		v9.99h-4.28V141.73z"/>
	<path d="M49.56,172.21c-1.05,0-1.98-0.2-2.79-0.58s-1.49-1-2.04-1.82c-0.55-0.83-0.97-1.88-1.26-3.18
		c-0.28-1.29-0.42-2.84-0.42-4.66v-4.6c0-1.54,0.12-2.87,0.34-3.97c0.23-1.1,0.53-2.03,0.9-2.78c0.37-0.75,0.8-1.34,1.29-1.78
		c0.49-0.44,0.99-0.77,1.51-1c0.52-0.23,1.03-0.38,1.55-0.44c0.51-0.06,0.99-0.1,1.42-0.1c0.8,0,1.57,0.12,2.32,0.36
		c0.74,0.24,1.4,0.65,1.96,1.24c0.57,0.58,1.02,1.36,1.35,2.34c0.34,0.98,0.5,2.2,0.5,3.66c0,0.5-0.01,1-0.04,1.5
		s-0.07,1.01-0.12,1.49c-0.05,0.49-0.11,0.96-0.19,1.42c-0.08,0.46-0.16,0.88-0.24,1.27h-8.08v2.48c0,1.06,0.04,1.95,0.12,2.68
		c0.08,0.73,0.22,1.31,0.42,1.75s0.46,0.76,0.8,0.96s0.76,0.29,1.26,0.29c0.27,0,0.54-0.06,0.8-0.17c0.26-0.11,0.49-0.3,0.68-0.56
		c0.2-0.26,0.35-0.6,0.47-1.03s0.18-0.96,0.18-1.6v-0.76H56v0.94c0,2.31-0.55,3.99-1.65,5.05
		C53.24,171.68,51.65,172.21,49.56,172.21z M52.04,157.6c0.01-0.13,0.02-0.3,0.04-0.52c0.01-0.22,0.02-0.44,0.03-0.68
		c0.01-0.24,0.01-0.47,0.01-0.7c0-0.23,0-0.43,0-0.59c0-1.6-0.19-2.76-0.57-3.47c-0.38-0.71-0.94-1.06-1.68-1.06
		c-0.39,0-0.73,0.09-1.03,0.27c-0.29,0.18-0.54,0.49-0.73,0.92s-0.33,1-0.42,1.71c-0.09,0.71-0.14,1.59-0.14,2.63v1.49H52.04z"/>
	<path d="M59.99,147.59h3.47l0.39,2.6v0.02c0.35-0.55,0.73-1.02,1.13-1.39c0.4-0.37,0.82-0.67,1.25-0.89
		c0.43-0.22,0.87-0.38,1.33-0.48c0.45-0.09,0.91-0.14,1.35-0.14c0.96,0,1.76,0.23,2.42,0.69s1.16,1.15,1.5,2.07
		c0.35-0.53,0.73-0.97,1.12-1.33c0.39-0.35,0.8-0.64,1.23-0.85c0.42-0.21,0.85-0.36,1.29-0.45c0.44-0.09,0.88-0.13,1.33-0.13
		c1.42,0,2.51,0.5,3.28,1.49c0.77,1,1.16,2.49,1.16,4.48v18.66h-4.47v-18.5c0-0.53-0.04-0.98-0.12-1.34
		c-0.08-0.37-0.21-0.66-0.37-0.88c-0.17-0.22-0.38-0.39-0.64-0.49c-0.26-0.1-0.57-0.15-0.94-0.15c-0.41,0-0.83,0.15-1.24,0.45
		s-0.79,0.72-1.13,1.25c0.01,0.11,0.02,0.21,0.02,0.32s0,0.21,0,0.32v19.03h-4.47v-18.5c0-0.53-0.04-0.98-0.12-1.34
		c-0.08-0.37-0.21-0.66-0.37-0.88c-0.17-0.22-0.38-0.39-0.64-0.49c-0.26-0.1-0.57-0.15-0.94-0.15c-0.4,0-0.81,0.15-1.22,0.44
		s-0.78,0.7-1.11,1.22v19.7h-4.47V147.59z"/>
	<path d="M93.02,172.21c-0.52,0-1.05-0.04-1.58-0.12c-0.54-0.08-1.06-0.25-1.56-0.51c-0.5-0.26-0.97-0.63-1.42-1.11
		s-0.83-1.12-1.16-1.91s-0.59-1.76-0.78-2.92c-0.19-1.16-0.28-2.54-0.28-4.14v-3.82c0-1.58,0.1-2.93,0.29-4.06
		c0.19-1.13,0.46-2.07,0.8-2.84c0.34-0.77,0.73-1.38,1.18-1.83c0.45-0.45,0.92-0.8,1.42-1.04c0.5-0.24,1.02-0.4,1.55-0.48
		c0.53-0.08,1.05-0.11,1.56-0.11c0.48,0,0.98,0.04,1.5,0.11c0.52,0.07,1.03,0.22,1.52,0.45c0.5,0.23,0.96,0.57,1.41,1.03
		s0.83,1.06,1.17,1.83s0.6,1.72,0.8,2.86c0.2,1.14,0.29,2.5,0.29,4.09v3.82c0,1.58-0.1,2.94-0.3,4.09c-0.2,1.14-0.47,2.11-0.81,2.9
		s-0.74,1.43-1.18,1.92c-0.45,0.49-0.92,0.87-1.42,1.14c-0.5,0.27-1,0.45-1.51,0.54C93.98,172.16,93.49,172.21,93.02,172.21z
		 M93.05,168.76c0.4,0,0.74-0.1,1.02-0.31c0.28-0.21,0.5-0.54,0.67-1.02s0.29-1.09,0.37-1.87c0.08-0.77,0.12-1.73,0.12-2.87v-6
		c0-1.14-0.04-2.1-0.12-2.88c-0.08-0.78-0.2-1.41-0.37-1.88s-0.4-0.82-0.67-1.04c-0.28-0.21-0.62-0.32-1.02-0.32
		c-0.42,0-0.78,0.11-1.07,0.32c-0.29,0.21-0.53,0.56-0.72,1.04s-0.32,1.11-0.41,1.88c-0.08,0.78-0.12,1.74-0.12,2.88v6
		c0,1.14,0.04,2.1,0.12,2.87c0.08,0.77,0.22,1.39,0.41,1.87s0.43,0.81,0.72,1.02S92.63,168.76,93.05,168.76z"/>
	<path d="M103.68,147.59h3.27l0.39,2.48c0.5-0.92,1.06-1.61,1.71-2.07s1.3-0.69,1.97-0.69c1.28,0,2.23,0.39,2.85,1.18
		c0.61,0.79,0.92,1.98,0.92,3.56c0,0.2-0.01,0.44-0.04,0.72s-0.07,0.57-0.12,0.87c-0.05,0.3-0.12,0.6-0.19,0.9
		c-0.08,0.3-0.16,0.58-0.24,0.82h-3.11v-2.26c0-0.5-0.03-0.9-0.1-1.22s-0.15-0.57-0.26-0.77c-0.11-0.2-0.23-0.33-0.37-0.41
		c-0.14-0.08-0.29-0.12-0.46-0.12c-0.35,0-0.68,0.12-0.98,0.34c-0.3,0.23-0.55,0.55-0.75,0.96v20.06h-4.47V147.59z"/>
	<path d="M120.01,144.1c-0.83,0-1.48-0.25-1.95-0.74s-0.72-1.22-0.72-2.18c0-0.53,0.06-0.98,0.19-1.33c0.12-0.36,0.3-0.65,0.53-0.87
		c0.23-0.22,0.51-0.38,0.84-0.48c0.33-0.1,0.71-0.15,1.13-0.15c0.88,0,1.56,0.22,2.02,0.67c0.46,0.45,0.69,1.17,0.69,2.16
		c0,0.92-0.23,1.64-0.7,2.15C121.57,143.85,120.89,144.1,120.01,144.1z M117.69,147.59h4.47v24.36h-4.47V147.59z"/>
	<path d="M132.71,172.21c-1.05,0-1.98-0.2-2.79-0.58s-1.49-1-2.04-1.82c-0.55-0.83-0.97-1.88-1.26-3.18
		c-0.28-1.29-0.42-2.84-0.42-4.66v-4.6c0-1.54,0.12-2.87,0.34-3.97c0.23-1.1,0.53-2.03,0.9-2.78c0.37-0.75,0.8-1.34,1.29-1.78
		c0.49-0.44,0.99-0.77,1.51-1c0.52-0.23,1.03-0.38,1.55-0.44c0.51-0.06,0.99-0.1,1.42-0.1c0.8,0,1.57,0.12,2.32,0.36
		c0.74,0.24,1.4,0.65,1.96,1.24c0.57,0.58,1.02,1.36,1.35,2.34c0.34,0.98,0.5,2.2,0.5,3.66c0,0.5-0.01,1-0.04,1.5
		s-0.07,1.01-0.12,1.49c-0.05,0.49-0.11,0.96-0.19,1.42c-0.08,0.46-0.16,0.88-0.24,1.27h-8.08v2.48c0,1.06,0.04,1.95,0.12,2.68
		c0.08,0.73,0.22,1.31,0.42,1.75s0.46,0.76,0.8,0.96s0.76,0.29,1.26,0.29c0.27,0,0.54-0.06,0.8-0.17c0.26-0.11,0.49-0.3,0.68-0.56
		c0.2-0.26,0.35-0.6,0.47-1.03s0.18-0.96,0.18-1.6v-0.76h3.73v0.94c0,2.31-0.55,3.99-1.65,5.05
		C136.39,171.68,134.79,172.21,132.71,172.21z M135.18,157.6c0.01-0.13,0.02-0.3,0.04-0.52c0.01-0.22,0.02-0.44,0.03-0.68
		c0.01-0.24,0.01-0.47,0.01-0.7c0-0.23,0-0.43,0-0.59c0-1.6-0.19-2.76-0.57-3.47c-0.38-0.71-0.94-1.06-1.68-1.06
		c-0.39,0-0.73,0.09-1.03,0.27c-0.29,0.18-0.54,0.49-0.73,0.92s-0.33,1-0.42,1.71c-0.09,0.71-0.14,1.59-0.14,2.63v1.49H135.18z"/>
	<path d="M142.19,166.85c0-0.53,0.05-1.04,0.15-1.54s0.2-0.89,0.29-1.18h3.15c0,0.88,0.04,1.62,0.13,2.22
		c0.09,0.6,0.23,1.07,0.43,1.42c0.2,0.35,0.47,0.61,0.81,0.76c0.34,0.15,0.75,0.23,1.23,0.23c0.67,0,1.16-0.19,1.47-0.57
		c0.31-0.38,0.46-0.81,0.46-1.31c0-0.26-0.04-0.51-0.11-0.74c-0.07-0.24-0.17-0.47-0.3-0.72c-0.13-0.24-0.29-0.49-0.48-0.73
		c-0.19-0.25-0.4-0.52-0.64-0.81l-3.27-3.86c-0.42-0.53-0.83-1.07-1.23-1.62c-0.39-0.55-0.74-1.11-1.04-1.7s-0.54-1.19-0.73-1.83
		s-0.27-1.31-0.27-2.02c0-0.94,0.16-1.76,0.49-2.46c0.32-0.7,0.76-1.27,1.31-1.73c0.55-0.46,1.18-0.8,1.9-1.03
		c0.72-0.22,1.48-0.34,2.28-0.34c0.88,0,1.68,0.11,2.39,0.32c0.71,0.21,1.32,0.53,1.82,0.96c0.51,0.42,0.9,0.95,1.17,1.58
		s0.41,1.36,0.41,2.2c0,0.57-0.05,1.11-0.15,1.64c-0.1,0.53-0.2,0.98-0.29,1.36h-3.1c-0.01-0.8-0.05-1.5-0.11-2.1
		c-0.06-0.6-0.17-1.1-0.33-1.49c-0.16-0.4-0.38-0.69-0.65-0.89c-0.28-0.2-0.64-0.3-1.09-0.3c-0.39,0-0.71,0.06-0.97,0.19
		c-0.26,0.12-0.47,0.29-0.63,0.49c-0.16,0.2-0.27,0.42-0.34,0.67c-0.06,0.25-0.1,0.5-0.1,0.76c0,0.57,0.14,1.09,0.41,1.57
		c0.27,0.48,0.63,1.01,1.08,1.57l3.57,4.19c0.26,0.32,0.56,0.7,0.9,1.16c0.34,0.45,0.67,0.96,0.97,1.5
		c0.31,0.55,0.57,1.15,0.78,1.79c0.21,0.65,0.32,1.33,0.32,2.03c0,0.86-0.14,1.64-0.41,2.34c-0.27,0.7-0.67,1.3-1.2,1.79
		c-0.53,0.5-1.18,0.88-1.95,1.15s-1.65,0.41-2.64,0.41c-0.81,0-1.58-0.09-2.3-0.27c-0.72-0.18-1.34-0.48-1.88-0.9
		c-0.53-0.42-0.95-0.97-1.26-1.65S142.19,167.85,142.19,166.85z"/>
</g>
</svg>
